<?xml version="1.0" encoding="UTF-8"?>
<svg version="1.1" xmlns="http://www.w3.org/2000/svg" width="200" height="200">
<path d="M0 0 C66 0 132 0 200 0 C200 66 200 132 200 200 C134 200 68 200 0 200 C0 134 0 68 0 0 Z " fill="#971A40" transform="translate(0,0)"/>
<path d="M0 0 C3.33600367 2.05838525 4.8262176 3.7393264 7 7 C7.33 4.69 7.66 2.38 8 0 C8.78375 0.185625 9.5675 0.37125 10.375 0.5625 C12.97089775 1.25962266 12.97089775 1.25962266 15 0 C19.86065303 -0.40505442 22.12100708 -0.45519276 26.5 1.8125 C27.325 2.534375 28.15 3.25625 29 4 C29 4.99 29 5.98 29 7 C29.268125 6.21625 29.53625 5.4325 29.8125 4.625 C31 2 31 2 34 0 C36.33984375 -0.30078125 36.33984375 -0.30078125 38.9375 -0.3125 C39.79214844 -0.32925781 40.64679688 -0.34601563 41.52734375 -0.36328125 C44.67454011 0.09910305 45.9188641 0.56004756 48 3 C48.29561076 5.87038052 48.37943016 8.33754745 48.25 11.1875 C48.23195312 11.93708984 48.21390625 12.68667969 48.1953125 13.45898438 C48.14824109 15.3065371 48.07649766 17.15343159 48 19 C44.7 19.66 41.4 20.32 38 21 C38.495 21.99 38.495 21.99 39 23 C40.32 22.67 41.64 22.34 43 22 C43.66 23.98 44.32 25.96 45 28 C45.391875 27.484375 45.78375 26.96875 46.1875 26.4375 C46.785625 25.963125 47.38375 25.48875 48 25 C50.6875 25.3125 50.6875 25.3125 53 26 C53.495 27.98 53.495 27.98 54 30 C52.02 30 50.04 30 48 30 C48.495 30.99 48.495 30.99 49 32 C50.65 32 52.3 32 54 32 C53.505 32.99 53.505 32.99 53 34 C50.69 33.67 48.38 33.34 46 33 C45.505 33.99 45.505 33.99 45 35 C43.68 35 42.36 35 41 35 C40.34 32.36 39.68 29.72 39 27 C38.67 27 38.34 27 38 27 C37.67 29.31 37.34 31.62 37 34 C36.01 33.67 35.02 33.34 34 33 C34.33 32.01 34.66 31.02 35 30 C33.68 30 32.36 30 31 30 C31 30.99 31 31.98 31 33 C30.34 33 29.68 33 29 33 C29 32.01 29 31.02 29 30 C28.34 30 27.68 30 27 30 C27 31.32 27 32.64 27 34 C26.01 34 25.02 34 24 34 C24 31.69 24 29.38 24 27 C23.01 27 22.02 27 21 27 C21 29.64 21 32.28 21 35 C19.71254964 35.38922918 18.41980403 35.76098036 17.125 36.125 C16.40570313 36.33382812 15.68640625 36.54265625 14.9453125 36.7578125 C14.30335937 36.83773437 13.66140625 36.91765625 13 37 C12.34 36.34 11.68 35.68 11 35 C8.20846046 34.57271454 8.20846046 34.57271454 5.0625 34.4375 C1.75529052 34.24059445 -0.84884164 34.05038612 -4 33 C-4.495 33.495 -4.495 33.495 -5 34 C-7.4375 34.1875 -7.4375 34.1875 -10 34 C-12 32 -12 32 -12.25 29.5 C-12 27 -12 27 -10 25 C-6.70285207 25.32971479 -5.3773161 25.6226839 -3 28 C-2.01 27.01 -1.02 26.02 0 25 C-0.66 23.68 -1.32 22.36 -2 21 C-0.02 20.01 1.96 19.02 4 18 C3.67 17.67 3.34 17.34 3 17 C2.01 17.66 1.02 18.32 0 19 C-4.78837042 19.54062247 -6.89466366 19.69083521 -11 17.125 C-13.80883857 12.73618974 -13.89007898 9.07516187 -13 4 C-10.20532929 -1.10331172 -5.25272394 -0.94736628 0 0 Z " fill="#961C42" transform="translate(92,97)"/>
<path d="M0 0 C3.3 0 6.6 0 10 0 C10 0.99 10 1.98 10 3 C8.68 3.33 7.36 3.66 6 4 C6 6.64 6 9.28 6 12 C9.08648836 9.94234109 9.6049703 9.21010589 11.0625 6 C12.22680769 3.45629163 12.99356552 2.00643448 15 0 C19.23831136 -0.42205778 23.49161762 -0.37159338 27.74853516 -0.37060547 C29.860526 -0.37497009 31.97041164 -0.41125594 34.08203125 -0.44921875 C35.4270762 -0.45508881 36.77213106 -0.45905694 38.1171875 -0.4609375 C39.34034668 -0.46915527 40.56350586 -0.47737305 41.82373047 -0.48583984 C45 0 45 0 47.43017578 1.84130859 C49 4 49 4 49 7 C47.68 7 46.36 7 45 7 C44.34 6.01 43.68 5.02 43 4 C39.91634129 3.7497843 39.91634129 3.7497843 37 4 C36.67 4.99 36.34 5.98 36 7 C37.03060547 7.18175781 37.03060547 7.18175781 38.08203125 7.3671875 C39.43361328 7.61855469 39.43361328 7.61855469 40.8125 7.875 C41.70582031 8.03742188 42.59914062 8.19984375 43.51953125 8.3671875 C46 9 46 9 49 11 C49.6953125 13.609375 49.6953125 13.609375 50.125 16.75 C50.27195313 17.77609375 50.41890625 18.8021875 50.5703125 19.859375 C50.71210937 20.89578125 50.85390625 21.9321875 51 23 C51.21269531 24.03898437 51.42539063 25.07796875 51.64453125 26.1484375 C52.16339359 30.31073979 50.84482107 32.31035787 49 36 C48.34 36 47.68 36 47 36 C46.34 34.35 45.68 32.7 45 31 C44.34 31 43.68 31 43 31 C43 29.02 43 27.04 43 25 C40.98567734 25.50256112 40.98567734 25.50256112 39 27 C37.70079254 30.54588501 37.70079254 30.54588501 37 34 C36.34 34 35.68 34 35 34 C34.34 32.68 33.68 31.36 33 30 C32.34 31.32 31.68 32.64 31 34 C30.34 33.34 29.68 32.68 29 32 C29 31.01 29 30.02 29 29 C26.50447516 29.78130071 26.50447516 29.78130071 24 31 C23.67 31.99 23.34 32.98 23 34 C22.34 34 21.68 34 21 34 C20.34 33.01 19.68 32.02 19 31 C18.67 31.99 18.34 32.98 18 34 C16.1128125 34.1546875 16.1128125 34.1546875 14.1875 34.3125 C11.39500343 34.64858808 10.25566879 34.80025876 8 36.5625 C7.67 37.036875 7.34 37.51125 7 38 C6.67 35.36 6.34 32.72 6 30 C5.34 31.32 4.68 32.64 4 34 C3.34 34 2.68 34 2 34 C1.34 31.03 0.68 28.06 0 25 C0.66 25 1.32 25 2 25 C2.33 23.68 2.66 22.36 3 21 C2.01 20.67 1.02 20.34 0 20 C0 13.4 0 6.8 0 0 Z " fill="#961F44" transform="translate(27,97)"/>
<path d="M0 0 C0.66 2.31 1.32 4.62 2 7 C3.07121094 6.98839844 4.14242187 6.97679688 5.24609375 6.96484375 C6.64322743 6.95546701 8.04036299 6.94636669 9.4375 6.9375 C10.14455078 6.92912109 10.85160156 6.92074219 11.58007812 6.91210938 C13.38693559 6.90346412 15.19387603 6.94779989 17 7 C18.93341947 8.93341947 18.17449133 12.37479121 18.1875 14.9375 C18.20167969 16.20464844 18.21585938 17.47179687 18.23046875 18.77734375 C18 22 18 22 16 24 C13.375 24.125 13.375 24.125 11 24 C11 24.99 11 25.98 11 27 C7.30099992 26.11223998 3.65449539 25.05418136 0 24 C-0.33 25.65 -0.66 27.3 -1 29 C-1.81984375 29.03738281 -2.6396875 29.07476562 -3.484375 29.11328125 C-4.56203125 29.17902344 -5.6396875 29.24476562 -6.75 29.3125 C-7.81734375 29.37050781 -8.8846875 29.42851563 -9.984375 29.48828125 C-13.1821068 30.03090154 -14.62598691 30.85071145 -17 33 C-17.33 31.68 -17.66 30.36 -18 29 C-18.804375 29.020625 -19.60875 29.04125 -20.4375 29.0625 C-23 29 -23 29 -24 28 C-24.10068462 25.57172387 -24.1387176 23.17801589 -24.125 20.75 C-24.12886719 20.08097656 -24.13273437 19.41195312 -24.13671875 18.72265625 C-24.12652905 13.53610143 -23.24932335 8.98942777 -22 4 C-19.27238489 3.32636628 -16.543201 2.66090556 -13.8125 2 C-13.04357422 1.80921875 -12.27464844 1.6184375 -11.48242188 1.421875 C-7.57921747 0.48376579 -4.04770205 -0.25957208 0 0 Z " fill="#EFBACC" transform="translate(152,59)"/>
<path d="M0 0 C3.33600367 2.05838525 4.8262176 3.7393264 7 7 C7.33 4.69 7.66 2.38 8 0 C8.78375 0.185625 9.5675 0.37125 10.375 0.5625 C12.97089775 1.25962266 12.97089775 1.25962266 15 0 C22.46666667 -0.35555556 22.46666667 -0.35555556 26 2 C27.18681726 5.56045177 27.09689832 8.43808337 27.0625 12.1875 C27.05347656 13.45980469 27.04445312 14.73210937 27.03515625 16.04296875 C27.02355469 17.01878906 27.01195312 17.99460937 27 19 C25.68 19 24.36 19 23 19 C22.93941406 18.00097656 22.87882812 17.00195312 22.81640625 15.97265625 C22.73261719 14.68230469 22.64882812 13.39195313 22.5625 12.0625 C22.48128906 10.77472656 22.40007812 9.48695312 22.31640625 8.16015625 C22.35080812 5.13976043 22.35080812 5.13976043 21 4 C18 3.83333333 18 3.83333333 15 4 C13.05909174 5.94090826 13.60080565 9.47293902 13.4375 12.0625 C13.35371094 13.35285156 13.26992187 14.64320312 13.18359375 15.97265625 C13.09271484 17.47119141 13.09271484 17.47119141 13 19 C11.68 19 10.36 19 9 19 C9 19.66 9 20.32 9 21 C9.99 21.33 10.98 21.66 12 22 C11.67 22.66 11.34 23.32 11 24 C11.99 24 12.98 24 14 24 C16.14915785 27.22373677 16.38286803 28.26703674 16 32 C14 34 14 34 10.62890625 34.23046875 C9.2733677 34.22647796 7.91782794 34.21172505 6.5625 34.1875 C5.88123047 34.18685547 5.19996094 34.18621094 4.49804688 34.18554688 C1.40402053 34.15827338 -1.04530673 33.98489776 -4 33 C-4.495 33.495 -4.495 33.495 -5 34 C-7.4375 34.1875 -7.4375 34.1875 -10 34 C-12 32 -12 32 -12.25 29.5 C-12 27 -12 27 -10 25 C-6.70285207 25.32971479 -5.3773161 25.6226839 -3 28 C-2.01 27.01 -1.02 26.02 0 25 C-0.66 23.68 -1.32 22.36 -2 21 C-0.02 20.01 1.96 19.02 4 18 C3.67 17.67 3.34 17.34 3 17 C2.01 17.66 1.02 18.32 0 19 C-4.78837042 19.54062247 -6.89466366 19.69083521 -11 17.125 C-13.80883857 12.73618974 -13.89007898 9.07516187 -13 4 C-10.20532929 -1.10331172 -5.25272394 -0.94736628 0 0 Z " fill="#942648" transform="translate(92,97)"/>
<path d="M0 0 C3.53157865 0.06634469 4.78233538 0.13839824 7.75 2.1875 C9.125 4.375 9.125 4.375 9.125 7.375 C7.805 7.375 6.485 7.375 5.125 7.375 C4.465 6.385 3.805 5.395 3.125 4.375 C0.04134129 4.1247843 0.04134129 4.1247843 -2.875 4.375 C-3.205 5.365 -3.535 6.355 -3.875 7.375 C-3.18792969 7.49617188 -2.50085938 7.61734375 -1.79296875 7.7421875 C-0.44138672 7.99355469 -0.44138672 7.99355469 0.9375 8.25 C1.83082031 8.41242188 2.72414063 8.57484375 3.64453125 8.7421875 C6.125 9.375 6.125 9.375 9.125 11.375 C9.8203125 13.984375 9.8203125 13.984375 10.25 17.125 C10.39695312 18.15109375 10.54390625 19.1771875 10.6953125 20.234375 C10.83710937 21.27078125 10.97890625 22.3071875 11.125 23.375 C11.44404297 24.93347656 11.44404297 24.93347656 11.76953125 26.5234375 C12.28839359 30.68573979 10.96982107 32.68535787 9.125 36.375 C8.465 36.375 7.805 36.375 7.125 36.375 C6.465 34.725 5.805 33.075 5.125 31.375 C4.465 31.375 3.805 31.375 3.125 31.375 C3.125 29.395 3.125 27.415 3.125 25.375 C1.11067734 25.87756112 1.11067734 25.87756112 -0.875 27.375 C-2.17420746 30.92088501 -2.17420746 30.92088501 -2.875 34.375 C-3.535 34.375 -4.195 34.375 -4.875 34.375 C-5.535 33.055 -6.195 31.735 -6.875 30.375 C-7.535 31.695 -8.195 33.015 -8.875 34.375 C-11.63723278 31.61276722 -11.45356291 29.16793383 -11.875 25.375 C-10.885 26.365 -9.895 27.355 -8.875 28.375 C-8.545 27.385 -8.215 26.395 -7.875 25.375 C-5.88776732 24.67118843 -3.88722047 24.0038189 -1.875 23.375 C-1.545 22.715 -1.215 22.055 -0.875 21.375 C-2.855 21.045 -4.835 20.715 -6.875 20.375 C-7.205 17.735 -7.535 15.095 -7.875 12.375 C-6.555 12.375 -5.235 12.375 -3.875 12.375 C-3.545 13.365 -3.215 14.355 -2.875 15.375 C-0.565 15.375 1.745 15.375 4.125 15.375 C4.125 14.385 4.125 13.395 4.125 12.375 C3.42632812 12.18164062 2.72765625 11.98828125 2.0078125 11.7890625 C1.09773438 11.52867188 0.18765625 11.26828125 -0.75 11 C-1.65492187 10.74476562 -2.55984375 10.48953125 -3.4921875 10.2265625 C-5.875 9.375 -5.875 9.375 -7.875 7.375 C-7.30924506 1.71745055 -5.60793722 0.08320382 0 0 Z " fill="#9A294D" transform="translate(66.875,96.625)"/>
<path d="M0 0 C2.87029869 1.79393668 4.49131638 2.98263276 6 6 C6.39447548 10.18144011 6.45035186 12.30946048 4.125 15.875 C1.21289342 18.78710658 0.3997223 18.96068305 -3.8125 19.375 C-7.11983012 19.30270863 -8.04807509 18.96995307 -11 17.125 C-13.80883857 12.73618974 -13.89007898 9.07516187 -13 4 C-10.20797057 -1.09848852 -5.24965627 -0.95448296 0 0 Z " fill="#FAE3EC" transform="translate(92,97)"/>
<path d="M0 0 C1.29550781 -0.03867188 1.29550781 -0.03867188 2.6171875 -0.078125 C5.80156647 0.33852272 7.03002067 0.78333079 9.125 3.25 C9.42061076 6.12038052 9.50443016 8.58754745 9.375 11.4375 C9.35695312 12.18708984 9.33890625 12.93667969 9.3203125 13.70898438 C9.27324109 15.5565371 9.20149766 17.40343159 9.125 19.25 C8.135 19.25 7.145 19.25 6.125 19.25 C6.125 18.59 6.125 17.93 6.125 17.25 C5.63 17.58 5.135 17.91 4.625 18.25 C0.90830061 19.73667975 -1.8691956 19.56792098 -5.875 19.25 C-7.875 18.125 -7.875 18.125 -8.875 16.25 C-9.25 13.1875 -9.25 13.1875 -8.875 10.25 C-5.59008627 8.06005752 -4.04404361 7.89722661 -0.1875 7.625 C0.80636719 7.55023438 1.80023438 7.47546875 2.82421875 7.3984375 C3.58347656 7.34945312 4.34273437 7.30046875 5.125 7.25 C4.465 6.26 3.805 5.27 3.125 4.25 C0.125 3.83333333 0.125 3.83333333 -2.875 4.25 C-3.535 4.91 -4.195 5.57 -4.875 6.25 C-5.865 6.25 -6.855 6.25 -7.875 6.25 C-7.5 3.8125 -7.5 3.8125 -6.875 1.25 C-4.43545342 0.03022671 -2.72194151 0.04846187 0 0 Z " fill="#F3D5DF" transform="translate(130.875,96.75)"/>
<path d="M0 0 C3.61986532 0.8116877 5.12897034 2.4703572 7.16015625 5.484375 C7.16015625 7.464375 7.16015625 9.444375 7.16015625 11.484375 C2.21015625 11.484375 -2.73984375 11.484375 -7.83984375 11.484375 C-6.84984375 12.804375 -5.85984375 14.124375 -4.83984375 15.484375 C-1.21420561 15.81818314 -1.21420561 15.81818314 2.16015625 15.484375 C2.16015625 14.824375 2.16015625 14.164375 2.16015625 13.484375 C3.48015625 13.484375 4.80015625 13.484375 6.16015625 13.484375 C5.84765625 15.359375 5.84765625 15.359375 5.16015625 17.484375 C1.15855215 20.15211107 -2.13415523 20.19916313 -6.83984375 19.484375 C-9.34145193 17.60816887 -10.45930027 16.24546197 -11.83984375 13.484375 C-12.52272581 6.54174076 -12.52272581 6.54174076 -9.90234375 2.484375 C-6.33094704 0.15203429 -4.19467268 -0.25210053 0 0 Z " fill="#F7DDE6" transform="translate(165.83984375,96.515625)"/>
<path d="M0 0 C0.66 2.31 1.32 4.62 2 7 C3.07121094 6.98839844 4.14242187 6.97679688 5.24609375 6.96484375 C6.64322743 6.95546701 8.04036299 6.94636669 9.4375 6.9375 C10.14455078 6.92912109 10.85160156 6.92074219 11.58007812 6.91210938 C13.38693559 6.90346412 15.19387603 6.94779989 17 7 C18.93341947 8.93341947 18.17449133 12.37479121 18.1875 14.9375 C18.20167969 16.20464844 18.21585938 17.47179687 18.23046875 18.77734375 C18 22 18 22 16 24 C13.375 24.125 13.375 24.125 11 24 C11 24.99 11 25.98 11 27 C7.30099992 26.11223998 3.65449539 25.05418136 0 24 C0 23.34 0 22.68 0 22 C5.33333333 22 10.66666667 22 16 22 C16 17.71 16 13.42 16 9 C11.71 9 7.42 9 3 9 C3 11.31 3 13.62 3 16 C1.23537317 12.91190305 1 11.76687864 1 8 C-1.43717258 8.27034634 -1.43717258 8.27034634 -4 9 C-4.99 10.485 -4.99 10.485 -6 12 C-6 10.35 -6 8.7 -6 7 C-4.02 7 -2.04 7 0 7 C-0.33 5.68 -0.66 4.36 -1 3 C-3.41706304 3.30964862 -5.83361887 3.62261115 -8.25 3.9375 C-8.93191406 4.02451172 -9.61382812 4.11152344 -10.31640625 4.20117188 C-13.60036611 4.6315938 -16.81190294 5.08794131 -20 6 C-20 7.98 -20 9.96 -20 12 C-15.71 12 -11.42 12 -7 12 C-7 12.33 -7 12.66 -7 13 C-14.92 13.495 -14.92 13.495 -23 14 C-22.67 18.29 -22.34 22.58 -22 27 C-19.69 27.66 -17.38 28.32 -15 29 C-14.67 28.67 -14.34 28.34 -14 28 C-11.98035801 27.92755947 -9.95832876 27.91622812 -7.9375 27.9375 C-6.83277344 27.94652344 -5.72804687 27.95554687 -4.58984375 27.96484375 C-3.73519531 27.97644531 -2.88054687 27.98804687 -2 28 C-2 28.33 -2 28.66 -2 29 C-2.74765625 29.03738281 -3.4953125 29.07476562 -4.265625 29.11328125 C-5.25046875 29.17902344 -6.2353125 29.24476562 -7.25 29.3125 C-8.22453125 29.37050781 -9.1990625 29.42851563 -10.203125 29.48828125 C-13.25341611 30.04636524 -14.70711276 30.96369776 -17 33 C-17.33 31.68 -17.66 30.36 -18 29 C-18.804375 29.020625 -19.60875 29.04125 -20.4375 29.0625 C-23 29 -23 29 -24 28 C-24.10068462 25.57172387 -24.1387176 23.17801589 -24.125 20.75 C-24.12886719 20.08097656 -24.13273437 19.41195312 -24.13671875 18.72265625 C-24.12652905 13.53610143 -23.24932335 8.98942777 -22 4 C-19.27238489 3.32636628 -16.543201 2.66090556 -13.8125 2 C-13.04357422 1.80921875 -12.27464844 1.6184375 -11.48242188 1.421875 C-7.57921747 0.48376579 -4.04770205 -0.25957208 0 0 Z " fill="#F9CBDC" transform="translate(152,59)"/>
<path d="M0 0 C3.41774116 0.64462734 5.03712251 1.69892025 7.1953125 4.4140625 C7.1953125 6.7240625 7.1953125 9.0340625 7.1953125 11.4140625 C2.5753125 11.4140625 -2.0446875 11.4140625 -6.8046875 11.4140625 C-6.1446875 12.7340625 -5.4846875 14.0540625 -4.8046875 15.4140625 C-1.88816576 15.58087359 -1.88816576 15.58087359 1.1953125 15.4140625 C1.8553125 14.7540625 2.5153125 14.0940625 3.1953125 13.4140625 C4.5153125 13.4140625 5.8353125 13.4140625 7.1953125 13.4140625 C6.85942932 15.93318638 6.62176296 17.08602369 4.5703125 18.6640625 C0.14365816 20.06195334 -3.48088554 20.04718518 -7.6796875 18.0390625 C-9.8046875 16.4140625 -9.8046875 16.4140625 -10.8046875 14.4140625 C-11.33670714 9.97475111 -11.28164366 6.4301865 -9.3671875 2.3515625 C-6.11156086 -0.11000886 -4.0061062 -0.25120798 0 0 Z " fill="#FDEBF3" transform="translate(48.8046875,96.5859375)"/>
<path d="M0 0 C3.3 0 6.6 0 10 0 C10 0.99 10 1.98 10 3 C8.68 3.33 7.36 3.66 6 4 C6 6.64 6 9.28 6 12 C6.99 11.34 7.98 10.68 9 10 C9 10.99 9 11.98 9 13 C8.01 13.33 7.02 13.66 6 14 C6 15.65 6 17.3 6 19 C6.99 19 7.98 19 9 19 C9.33 19.99 9.66 20.98 10 22 C9.67 22.66 9.34 23.32 9 24 C9.66 24.33 10.32 24.66 11 25 C10.25 31.75 10.25 31.75 8 34 C7.34 32.68 6.68 31.36 6 30 C5.34 31.32 4.68 32.64 4 34 C3.34 34 2.68 34 2 34 C1.34 31.03 0.68 28.06 0 25 C0.66 25 1.32 25 2 25 C2.33 23.68 2.66 22.36 3 21 C2.01 20.67 1.02 20.34 0 20 C0 13.4 0 6.8 0 0 Z " fill="#972E4E" transform="translate(27,97)"/>
<path d="M0 0 C0.33 0 0.66 0 1 0 C1.09796875 0.62648438 1.1959375 1.25296875 1.296875 1.8984375 C1.44640625 2.71570313 1.5959375 3.53296875 1.75 4.375 C1.88921875 5.18710938 2.0284375 5.99921875 2.171875 6.8359375 C2.81759559 9.10947376 2.81759559 9.10947376 4.75 10.28125 C7.37144769 11.1186569 9.50286149 11.19729312 12.25 11.125 C13.58804688 11.09792969 13.58804688 11.09792969 14.953125 11.0703125 C15.62859375 11.04710938 16.3040625 11.02390625 17 11 C16.67 11.99 16.34 12.98 16 14 C12.04 14 8.08 14 4 14 C4 14.66 4 15.32 4 16 C4.66 16 5.32 16 6 16 C6 16.66 6 17.32 6 18 C6.556875 17.649375 7.11375 17.29875 7.6875 16.9375 C10.53886783 15.78154007 12.08517222 16.19032562 15 17 C14.54177532 20.46941546 14.10868317 23.67395049 13 27 C12.34 27 11.68 27 11 27 C10.34 26.01 9.68 25.02 9 24 C8.67 24.99 8.34 25.98 8 27 C6.01432292 27.16276042 4.02864583 27.32552083 2.04296875 27.48828125 C-0.41511279 28.10397663 -1.38136299 29.09542081 -3 31 C-2.79503906 30.39671875 -2.59007812 29.7934375 -2.37890625 29.171875 C-2.10949219 28.37265625 -1.84007812 27.5734375 -1.5625 26.75 C-1.29566406 25.96109375 -1.02882812 25.1721875 -0.75390625 24.359375 C-0.08045292 22.25178012 0.49150595 20.15246027 1 18 C0.01 17.67 -0.98 17.34 -2 17 C-1.67 15.35 -1.34 13.7 -1 12 C-1.99 12 -2.98 12 -4 12 C-4.1875 9.625 -4.1875 9.625 -4 7 C-3.01 6.34 -2.02 5.68 -1 5 C-0.27034634 2.43717258 -0.27034634 2.43717258 0 0 Z " fill="#97274A" transform="translate(37,104)"/>
<path d="M0 0 C5.47057574 -0.51286648 10.19052272 1.59526136 15 4 C14.67 4.66 14.34 5.32 14 6 C13.01 6 12.02 6 11 6 C11.99 6.99 12.98 7.98 14 9 C14.33 8.34 14.66 7.68 15 7 C15.66 7 16.32 7 17 7 C16.814375 7.928125 16.62875 8.85625 16.4375 9.8125 C15.75876119 13.01343771 15.75876119 13.01343771 17 16 C16.34 16 15.68 16 15 16 C15 15.34 15 14.68 15 14 C14.401875 14.33 13.80375 14.66 13.1875 15 C11 16 11 16 8 16 C4.75685563 17.27760233 4.02041177 17.96938234 2 21 C0 19 0 19 -0.23046875 16.7578125 C-0.21628906 15.88898438 -0.20210937 15.02015625 -0.1875 14.125 C-0.18105469 13.26132813 -0.17460937 12.39765625 -0.16796875 11.5078125 C0 9 0 9 0.57421875 6.8046875 C1.22378321 4.91369339 1.22378321 4.91369339 0 3 C0.99 3 1.98 3 3 3 C3 2.34 3 1.68 3 1 C2.01 0.67 1.02 0.34 0 0 Z " fill="#AC4364" transform="translate(154,115)"/>
<path d="M0 0 C2.125 0.375 2.125 0.375 4 1 C3.51402344 1.39316406 3.02804688 1.78632812 2.52734375 2.19140625 C0.05773331 5.11577871 0.52562447 7.92711048 0.66015625 11.61328125 C0.87168435 14.15000035 0.87168435 14.15000035 2.5 16.625 C5.98815706 18.54348638 9.15603331 18.66222792 13 18 C15.9254644 16.6490712 15.9254644 16.6490712 18 15 C17.8125 16.875 17.8125 16.875 17 19 C14.4375 20.25 14.4375 20.25 12 21 C12.95865509 23.33075929 12.95865509 23.33075929 16 25 C14.35 25.33 12.7 25.66 11 26 C10.67 26.99 10.34 27.98 10 29 C9.608125 28.484375 9.21625 27.96875 8.8125 27.4375 C8.214375 26.963125 7.61625 26.48875 7 26 C4.34533951 26.23043864 4.34533951 26.23043864 2 27 C1.84850702 30.62885324 1.84850702 30.62885324 3 34 C0.525 34.495 0.525 34.495 -2 35 C-2.08226668 31.95613276 -1.97608217 29.92824652 -1 27 C-1.309375 25.948125 -1.61875 24.89625 -1.9375 23.8125 C-3.11806548 19.57635329 -3.15314572 16.36465301 -3 12 C-2.67 12 -2.34 12 -2 12 C-2.03480469 10.95199219 -2.03480469 10.95199219 -2.0703125 9.8828125 C-2.08835937 8.97273438 -2.10640625 8.06265625 -2.125 7.125 C-2.14820312 6.22007813 -2.17140625 5.31515625 -2.1953125 4.3828125 C-2 2 -2 2 0 0 Z " fill="#982548" transform="translate(79,97)"/>
<path d="M0 0 C4.29 0 8.58 0 13 0 C13 4.29 13 8.58 13 13 C6.84765625 14.66015625 6.84765625 14.66015625 5 15 C4.67 14.67 4.34 14.34 4 14 C1.67182036 13.63239269 -0.6618385 13.29758419 -3 13 C-3 11.35 -3 9.7 -3 8 C-2.34 7.67 -1.68 7.34 -1 7 C-0.59270772 4.67843403 -0.25561323 2.3431213 0 0 Z " fill="#982145" transform="translate(155,68)"/>
<path d="M0 0 C3.53157865 0.06634469 4.78233538 0.13839824 7.75 2.1875 C9.125 4.375 9.125 4.375 9.125 7.375 C7.805 7.375 6.485 7.375 5.125 7.375 C4.465 6.385 3.805 5.395 3.125 4.375 C0.04134129 4.1247843 0.04134129 4.1247843 -2.875 4.375 C-3.205 5.365 -3.535 6.355 -3.875 7.375 C-3.18792969 7.49617188 -2.50085938 7.61734375 -1.79296875 7.7421875 C-0.44138672 7.99355469 -0.44138672 7.99355469 0.9375 8.25 C1.83082031 8.41242188 2.72414063 8.57484375 3.64453125 8.7421875 C6.125 9.375 6.125 9.375 9.125 11.375 C9.5625 13.8125 9.5625 13.8125 9.125 16.375 C7.31452935 18.65776734 5.86464875 19.27592778 2.99609375 19.66015625 C-0.59995939 19.79641527 -3.17399363 19.71695432 -6.4375 18.125 C-7.875 16.375 -7.875 16.375 -7.875 12.375 C-6.555 12.375 -5.235 12.375 -3.875 12.375 C-3.545 13.365 -3.215 14.355 -2.875 15.375 C-0.565 15.375 1.745 15.375 4.125 15.375 C4.125 14.385 4.125 13.395 4.125 12.375 C3.42632812 12.18164062 2.72765625 11.98828125 2.0078125 11.7890625 C1.09773438 11.52867188 0.18765625 11.26828125 -0.75 11 C-1.65492187 10.74476562 -2.55984375 10.48953125 -3.4921875 10.2265625 C-5.875 9.375 -5.875 9.375 -7.875 7.375 C-7.30924506 1.71745055 -5.60793722 0.08320382 0 0 Z " fill="#FDE9F1" transform="translate(66.875,96.625)"/>
<path d="M0 0 C1.32 0.33 2.64 0.66 4 1 C4.66 0.67 5.32 0.34 6 0 C13.46666667 -0.35555556 13.46666667 -0.35555556 17 2 C18.18681726 5.56045177 18.09689832 8.43808337 18.0625 12.1875 C18.05347656 13.45980469 18.04445313 14.73210937 18.03515625 16.04296875 C18.02355469 17.01878906 18.01195313 17.99460937 18 19 C16.68 19 15.36 19 14 19 C13.93941406 18.00097656 13.87882812 17.00195312 13.81640625 15.97265625 C13.69072266 14.03712891 13.69072266 14.03712891 13.5625 12.0625 C13.48128906 10.77472656 13.40007812 9.48695312 13.31640625 8.16015625 C13.35080812 5.13976043 13.35080812 5.13976043 12 4 C9 3.83333333 9 3.83333333 6 4 C4.05909174 5.94090826 4.60080565 9.47293902 4.4375 12.0625 C4.35371094 13.35285156 4.26992187 14.64320312 4.18359375 15.97265625 C4.12300781 16.97167969 4.06242187 17.97070312 4 19 C2.68 19 1.36 19 0 19 C0 12.73 0 6.46 0 0 Z " fill="#FADBE6" transform="translate(101,97)"/>
<path d="M0 0 C0.66 0 1.32 0 2 0 C2.33 1.98 2.66 3.96 3 6 C4.11375 5.95875 5.2275 5.9175 6.375 5.875 C10 6 10 6 12 8 C13.32 7.01 14.64 6.02 16 5 C16.268125 5.639375 16.53625 6.27875 16.8125 6.9375 C17.88667752 9.33131686 17.88667752 9.33131686 21 10 C21 10.99 21 11.98 21 13 C20.24074219 13.04898438 19.48148438 13.09796875 18.69921875 13.1484375 C17.70535156 13.22320312 16.71148437 13.29796875 15.6875 13.375 C14.20830078 13.47941406 14.20830078 13.47941406 12.69921875 13.5859375 C9.78471567 13.83865472 9.78471567 13.83865472 7 16 C7 15.34 7 14.68 7 14 C5.5459375 14.0309375 5.5459375 14.0309375 4.0625 14.0625 C1 14 1 14 0 13 C-0.07258946 10.81360547 -0.08373783 8.62499611 -0.0625 6.4375 C-0.05347656 5.23996094 -0.04445312 4.04242188 -0.03515625 2.80859375 C-0.02355469 1.88175781 -0.01195312 0.95492187 0 0 Z " fill="#911E41" transform="translate(129,73)"/>
<path d="M0 0 C0 1.32 0 2.64 0 4 C-1.98 4.33 -3.96 4.66 -6 5 C-6.33 6.32 -6.66 7.64 -7 9 C-11.29 9 -15.58 9 -20 9 C-20.33 7.02 -20.66 5.04 -21 3 C-17.33579166 1.40070465 -13.87756431 0.47498869 -9.9375 -0.1875 C-8.40416016 -0.45626953 -8.40416016 -0.45626953 -6.83984375 -0.73046875 C-4.19000086 -0.98196691 -2.49429401 -0.84339438 0 0 Z " fill="#941B42" transform="translate(152,62)"/>
<path d="M0 0 C3.0625 0.3125 3.0625 0.3125 4.9375 1.4375 C6.59827671 4.20546119 6.45055206 6.14340818 6.0625 9.3125 C4.9375 11.6875 4.9375 11.6875 3.0625 13.3125 C0 13.6875 0 13.6875 -2.9375 13.3125 C-4.9375 11.3125 -4.9375 11.3125 -5.203125 9.21875 C-5.19539063 8.02765625 -5.19539063 8.02765625 -5.1875 6.8125 C-5.19265625 6.0184375 -5.1978125 5.224375 -5.203125 4.40625 C-4.75316487 0.85950548 -3.40966399 0.36273021 0 0 Z " fill="#99304F" transform="translate(87.9375,99.6875)"/>
<path d="M0 0 C4.95 0 9.9 0 15 0 C16.74714662 6.63915716 16.74714662 6.63915716 17 10 C15.25 12.625 15.25 12.625 13 14 C12.34 14 11.68 14 11 14 C10.67 14.99 10.34 15.98 10 17 C8.68 15.68 7.36 14.36 6 13 C6.66 12.67 7.32 12.34 8 12 C8.66 12.33 9.32 12.66 10 13 C9.67 12.34 9.34 11.68 9 11 C6.6859378 10.26924352 4.35171131 9.59861742 2 9 C2 8.67 2 8.34 2 8 C2.69867188 7.90203125 3.39734375 7.8040625 4.1171875 7.703125 C5.48230469 7.47882813 5.48230469 7.47882813 6.875 7.25 C7.77992188 7.11078125 8.68484375 6.9715625 9.6171875 6.828125 C12.16214243 6.22016157 12.16214243 6.22016157 13.3203125 3.921875 C13.65675781 2.97054687 13.65675781 2.97054687 14 2 C12.68 2 11.36 2 10 2 C10 2.66 10 3.32 10 4 C6.6875 4.6875 6.6875 4.6875 3 5 C1.0625 3.6875 1.0625 3.6875 0 2 C0 1.34 0 0.68 0 0 Z " fill="#962649" transform="translate(158,108)"/>
<path d="M0 0 C1.32 0 2.64 0 4 0 C4 1.65 4 3.3 4 5 C5.65 5 7.3 5 9 5 C9 5.99 9 6.98 9 8 C7.35 8 5.7 8 4 8 C4.33 10.97 4.66 13.94 5 17 C6.32 17.33 7.64 17.66 9 18 C9 18.99 9 19.98 9 21 C5.625 21.125 5.625 21.125 2 21 C0 19 0 19 -0.1953125 16.3984375 C-0.17210937 15.40070313 -0.14890625 14.40296875 -0.125 13.375 C-0.10695312 12.37210938 -0.08890625 11.36921875 -0.0703125 10.3359375 C-0.04710937 9.56507812 -0.02390625 8.79421875 0 8 C-0.99 8 -1.98 8 -3 8 C-3 7.01 -3 6.02 -3 5 C-2.01 5 -1.02 5 0 5 C0 3.35 0 1.7 0 0 Z " fill="#FAE3EC" transform="translate(144,95)"/>
<path d="M0 0 C3.29714793 0.32971479 4.6226839 0.6226839 7 3 C7.391875 2.484375 7.78375 1.96875 8.1875 1.4375 C8.785625 0.963125 9.38375 0.48875 10 0 C12.6875 0.3125 12.6875 0.3125 15 1 C15 1.66 15 2.32 15 3 C13.68 3 12.36 3 11 3 C12.32 3.66 13.64 4.32 15 5 C14.67 6.32 14.34 7.64 14 9 C12.700625 8.814375 11.40125 8.62875 10.0625 8.4375 C7.91424457 8.1018371 7.91424457 8.1018371 6 8 C5.67 8.33 5.34 8.66 5 9 C2.5625 9.1875 2.5625 9.1875 0 9 C-2 7 -2 7 -2.25 4.5 C-2 2 -2 2 0 0 Z " fill="#973E59" transform="translate(82,122)"/>
<path d="M0 0 C0.33 1.32 0.66 2.64 1 4 C1.66 3.01 2.32 2.02 3 1 C3.66 2.32 4.32 3.64 5 5 C6.65 5 8.3 5 10 5 C8.68 5.33 7.36 5.66 6 6 C6 7.65 6 9.3 6 11 C5.01 11 4.02 11 3 11 C3 11.99 3 12.98 3 14 C3.99 14 4.98 14 6 14 C6 17.3 6 20.6 6 24 C5.67 24 5.34 24 5 24 C5 21.03 5 18.06 5 15 C4.34 15 3.68 15 3 15 C3.33 19.29 3.66 23.58 4 28 C2.68 27.67 1.36 27.34 0 27 C0.66 27 1.32 27 2 27 C1.9132428 24.37335097 1.80642019 21.75021918 1.6875 19.125 C1.66494141 18.37863281 1.64238281 17.63226563 1.61914062 16.86328125 C1.52188055 14.900396 1.26957706 12.94671678 1 11 C-1.90092502 9.06604999 -2.89674737 8.69868059 -6.1875 8.375 C-7.445625 8.25125 -8.70375 8.1275 -10 8 C-10 7.67 -10 7.34 -10 7 C-8.02 6.67 -6.04 6.34 -4 6 C-3.8453125 5.071875 -3.8453125 5.071875 -3.6875 4.125 C-3 2 -3 2 0 0 Z " fill="#993050" transform="translate(138,89)"/>
<path d="M0 0 C3.0625 2.125 3.0625 2.125 5 5 C5.3125 8.3125 5.3125 8.3125 5 11 C4.67 11 4.34 11 4 11 C4 9.35 4 7.7 4 6 C3.01 6.66 2.02 7.32 1 8 C-1.69921875 8.1953125 -1.69921875 8.1953125 -4.6875 8.125 C-6.17830078 8.09792969 -6.17830078 8.09792969 -7.69921875 8.0703125 C-8.45847656 8.04710938 -9.21773437 8.02390625 -10 8 C-10 6.35 -10 4.7 -10 3 C-10.66 2.67 -11.32 2.34 -12 2 C-7.97867463 -0.68088358 -4.7248497 -0.80264522 0 0 Z " fill="#F2D4DF" transform="translate(168,97)"/>
<path d="M0 0 C5.55140187 -0.12616822 5.55140187 -0.12616822 8 0.5625 C10.80116617 1.1752551 13.20392598 0.49707983 16 0 C17 1 17 1 17.09765625 2.84765625 C17.06510417 4.8984375 17.03255208 6.94921875 17 9 C16.34 8.34 15.68 7.68 15 7 C15.33 6.34 15.66 5.68 16 5 C14.68 5 13.36 5 12 5 C12 5.99 12 6.98 12 8 C11.34 8 10.68 8 10 8 C10 7.01 10 6.02 10 5 C9.34 5 8.68 5 8 5 C8 6.32 8 7.64 8 9 C7.01 9 6.02 9 5 9 C5 6.69 5 4.38 5 2 C4.01 2 3.02 2 2 2 C2 4.31 2 6.62 2 9 C1.34 9 0.68 9 0 9 C0 6.03 0 3.06 0 0 Z " fill="#CA7D95" transform="translate(111,122)"/>
<path d="M0 0 C0.87527344 -0.01417969 1.75054687 -0.02835937 2.65234375 -0.04296875 C5.0625 0.1875 5.0625 0.1875 8.0625 2.1875 C8.28357787 4.9760289 8.34357535 7.53403181 8.25 10.3125 C8.22969727 11.44365234 8.22969727 11.44365234 8.20898438 12.59765625 C8.17359985 14.46124127 8.11979167 16.32445978 8.0625 18.1875 C7.7325 17.5275 7.4025 16.8675 7.0625 16.1875 C6.0725 15.8575 5.0825 15.5275 4.0625 15.1875 C4.07410156 14.47722656 4.08570313 13.76695313 4.09765625 13.03515625 C4.10667969 12.11605469 4.11570313 11.19695312 4.125 10.25 C4.13660156 9.33347656 4.14820313 8.41695312 4.16015625 7.47265625 C4.32199049 5.22156673 4.32199049 5.22156673 3.0625 4.1875 C0.10432893 3.93744614 0.10432893 3.93744614 -2.9375 4.1875 C-3.5975 4.8475 -4.2575 5.5075 -4.9375 6.1875 C-5.9275 6.1875 -6.9175 6.1875 -7.9375 6.1875 C-7.5625 3.75 -7.5625 3.75 -6.9375 1.1875 C-4.47380468 -0.04434766 -2.7480499 0.02017658 0 0 Z " fill="#FDFAFB" transform="translate(130.9375,96.8125)"/>
<path d="M0 0 C3.3 0 6.6 0 10 0 C10 0.99 10 1.98 10 3 C8.35 3.66 6.7 4.32 5 5 C4.67 9.62 4.34 14.24 4 19 C2.68 19 1.36 19 0 19 C0 12.73 0 6.46 0 0 Z " fill="#FADFE9" transform="translate(27,97)"/>
<path d="M0 0 C1.93341947 1.93341947 1.17449133 5.37479121 1.1875 7.9375 C1.20167969 9.20464844 1.21585938 10.47179687 1.23046875 11.77734375 C1 15 1 15 -1 17 C-3.625 17.125 -3.625 17.125 -6 17 C-6 17.99 -6 18.98 -6 20 C-9.69900008 19.11223998 -13.34550461 18.05418136 -17 17 C-17 16.34 -17 15.68 -17 15 C-11.66666667 15 -6.33333333 15 -1 15 C-1 10.71 -1 6.42 -1 2 C-5.29 2 -9.58 2 -14 2 C-14.33 2.66 -14.66 3.32 -15 4 C-15 3.01 -15 2.02 -15 1 C-9.92193071 0.15365512 -5.15197086 -0.17765417 0 0 Z " fill="#DEA9BA" transform="translate(169,66)"/>
<path d="M0 0 C1.98 0 3.96 0 6 0 C7.05505864 3.16517591 6.95899367 5.70359511 6.8984375 9.00390625 C7.03052722 11.59997736 7.98406333 13.6294811 9 16 C8.67 16.99 8.34 17.98 8 19 C5.69 18.67 3.38 18.34 1 18 C2.32 17.67 3.64 17.34 5 17 C5 16.01 5 15.02 5 14 C3.35 13.67 1.7 13.34 0 13 C0 10.03 0 7.06 0 4 C1.65 4 3.3 4 5 4 C5 3.01 5 2.02 5 1 C3.35 1 1.7 1 0 1 C0 0.67 0 0.34 0 0 Z " fill="#993553" transform="translate(148,99)"/>
<path d="M0 0 C0.33 0.66 0.66 1.32 1 2 C1.66 2 2.32 2 3 2 C3.33 2.99 3.66 3.98 4 5 C4.391875 4.484375 4.78375 3.96875 5.1875 3.4375 C5.785625 2.963125 6.38375 2.48875 7 2 C9.6875 2.3125 9.6875 2.3125 12 3 C12.33 4.32 12.66 5.64 13 7 C11.02 7 9.04 7 7 7 C7.33 7.66 7.66 8.32 8 9 C9.65 9 11.3 9 13 9 C12.67 9.66 12.34 10.32 12 11 C9.69 10.67 7.38 10.34 5 10 C4.67 10.66 4.34 11.32 4 12 C2.68 12 1.36 12 0 12 C-0.19477739 10.37585622 -0.38059458 8.75063577 -0.5625 7.125 C-0.66691406 6.22007813 -0.77132812 5.31515625 -0.87890625 4.3828125 C-1 2 -1 2 0 0 Z " fill="#BE6C86" transform="translate(133,120)"/>
<path d="M0 0 C1.485 0.99 1.485 0.99 3 2 C3.33 1.34 3.66 0.68 4 0 C4.33 0.99 4.66 1.98 5 3 C5.70125 2.505 6.4025 2.01 7.125 1.5 C10.37119719 -0.1936681 12.39340156 -0.25162315 16 0 C16.66 1.32 17.32 2.64 18 4 C13.71 4.99 9.42 5.98 5 7 C5 9.31 5 11.62 5 14 C4.34 14 3.68 14 3 14 C2.34 14.66 1.68 15.32 1 16 C0.67 10.72 0.34 5.44 0 0 Z " fill="#9C435F" transform="translate(118,100)"/>
<path d="M0 0 C0.66 0.99 1.32 1.98 2 3 C1.34 3 0.68 3 0 3 C-0.33 3.66 -0.66 4.32 -1 5 C-3.94707015 6.24431851 -6.10681114 7.1207012 -9.3125 6.6875 C-11 6 -11 6 -12 5 C-12.66 5.66 -13.32 6.32 -14 7 C-16.67545087 8.71503261 -18.9757213 9.9919071 -22 11 C-22 10.01 -22 9.02 -22 8 C-24.64 8 -27.28 8 -30 8 C-30 7.67 -30 7.34 -30 7 C-24.06 6.505 -24.06 6.505 -18 6 C-17.67 4.68 -17.34 3.36 -17 2 C-12.32538149 1.67386382 -9.83325617 2.29417212 -6 5 C-6 4.01 -6 3.02 -6 2 C-4.02 1.34 -2.04 0.68 0 0 Z " fill="#952B4B" transform="translate(169,81)"/>
<path d="M0 0 C-0.33 0.99 -0.66 1.98 -1 3 C-2.98 3.33 -4.96 3.66 -7 4 C-6.67 4.66 -6.34 5.32 -6 6 C-4.68 5.67 -3.36 5.34 -2 5 C-3 8 -3 8 -4 9 C-4.04092937 11.33297433 -4.04241723 13.66705225 -4 16 C-4.33 16 -4.66 16 -5 16 C-5.33 14.02 -5.66 12.04 -6 10 C-6.33 10 -6.66 10 -7 10 C-7.33 12.31 -7.66 14.62 -8 17 C-8.33 17 -8.66 17 -9 17 C-9.33 14.36 -9.66 11.72 -10 9 C-11.65 9 -13.3 9 -15 9 C-15 8.34 -15 7.68 -15 7 C-14.34 7 -13.68 7 -13 7 C-12.855625 6.21625 -12.71125 5.4325 -12.5625 4.625 C-11 2 -11 2 -8.93359375 1.22265625 C-5.94413639 0.56526354 -3.06666039 0 0 0 Z " fill="#A03B59" transform="translate(137,114)"/>
<path d="M0 0 C1.48831242 0.00667405 2.97660807 0.01863442 4.46484375 0.03515625 C5.22345703 0.03966797 5.98207031 0.04417969 6.76367188 0.04882812 C8.64326246 0.06064945 10.52281274 0.07858547 12.40234375 0.09765625 C12.40234375 0.42765625 12.40234375 0.75765625 12.40234375 1.09765625 C4.48234375 1.59265625 4.48234375 1.59265625 -3.59765625 2.09765625 C-3.26765625 6.38765625 -2.93765625 10.67765625 -2.59765625 15.09765625 C-0.28765625 15.75765625 2.02234375 16.41765625 4.40234375 17.09765625 C4.73234375 16.76765625 5.06234375 16.43765625 5.40234375 16.09765625 C7.42198574 16.02521572 9.44401499 16.01388437 11.46484375 16.03515625 C12.56957031 16.04417969 13.67429688 16.05320312 14.8125 16.0625 C15.66714844 16.07410156 16.52179688 16.08570312 17.40234375 16.09765625 C17.40234375 16.42765625 17.40234375 16.75765625 17.40234375 17.09765625 C16.6546875 17.13503906 15.90703125 17.17242187 15.13671875 17.2109375 C14.151875 17.27667969 13.16703125 17.34242187 12.15234375 17.41015625 C11.1778125 17.46816406 10.20328125 17.52617188 9.19921875 17.5859375 C6.14892764 18.14402149 4.69523099 19.06135401 2.40234375 21.09765625 C2.07234375 19.77765625 1.74234375 18.45765625 1.40234375 17.09765625 C0.59796875 17.11828125 -0.20640625 17.13890625 -1.03515625 17.16015625 C-3.59765625 17.09765625 -3.59765625 17.09765625 -4.59765625 16.09765625 C-4.69740657 13.58629521 -4.73647808 11.1086221 -4.72265625 8.59765625 C-4.72652344 7.89511719 -4.73039062 7.19257812 -4.734375 6.46875 C-4.7221581 0.12818019 -4.7221581 0.12818019 0 0 Z " fill="#FDD3E4" transform="translate(132.59765625,70.90234375)"/>
<path d="M0 0 C3 0.25 3 0.25 5 2.25 C5.1953125 5.5078125 5.1953125 5.5078125 5.125 9.375 C5.10695313 10.65632813 5.08890625 11.93765625 5.0703125 13.2578125 C5.04710938 14.24523437 5.02390625 15.23265625 5 16.25 C4.67 16.25 4.34 16.25 4 16.25 C4 11.96 4 7.67 4 3.25 C2.35 3.25 0.7 3.25 -1 3.25 C-2.31262571 4.33552366 -2.31262571 4.33552366 -2.09765625 6.97265625 C-2.08605469 8.07480469 -2.07445313 9.17695312 -2.0625 10.3125 C-2.04896484 11.96958984 -2.04896484 11.96958984 -2.03515625 13.66015625 C-2.02355469 14.51480469 -2.01195313 15.36945313 -2 16.25 C-2.99 16.58 -3.98 16.91 -5 17.25 C-5.05383848 14.79137599 -5.09359038 12.3339245 -5.125 9.875 C-5.14175781 9.17632812 -5.15851563 8.47765625 -5.17578125 7.7578125 C-5.19344267 5.92102514 -5.10303261 4.08398037 -5 2.25 C-3 0.25 -3 0.25 0 0 Z " fill="#913351" transform="translate(110,99.75)"/>
<path d="M0 0 C1.65 0 3.3 0 5 0 C5.66 2.31 6.32 4.62 7 7 C7.99 6.67 8.98 6.34 10 6 C10.66 6.33 11.32 6.66 12 7 C11.34 8.32 10.68 9.64 10 11 C8.35 11 6.7 11 5 11 C5 11.66 5 12.32 5 13 C4.01 13 3.02 13 2 13 C2 12.34 2 11.68 2 11 C1.34 10.67 0.68 10.34 0 10 C0.99 9.67 1.98 9.34 3 9 C1.68 8.67 0.36 8.34 -1 8 C-1 7.34 -1 6.68 -1 6 C0.98 6 2.96 6 5 6 C3.63016497 2.83884224 3.0109362 2.0072908 0 0 Z " fill="#9C3554" transform="translate(141,121)"/>
<path d="M0 0 C1.546875 0.680625 1.546875 0.680625 3.125 1.375 C6.36437508 2.76707361 9.63739693 3.93380878 13 5 C12.67 6.32 12.34 7.64 12 9 C9.69 9 7.38 9 5 9 C4.67 7.68 4.34 6.36 4 5 C2.68 5 1.36 5 0 5 C-0.33 6.32 -0.66 7.64 -1 9 C-1 7.35 -1 5.7 -1 4 C-0.34 4 0.32 4 1 4 C0.67 2.68 0.34 1.36 0 0 Z " fill="#9F4D66" transform="translate(59,104)"/>
<path d="M0 0 C4.55555556 0.55555556 4.55555556 0.55555556 6 2 C6.1875 4.4375 6.1875 4.4375 6 7 C5.34 7.66 4.68 8.32 4 9 C-0.55555556 8.44444444 -0.55555556 8.44444444 -2 7 C-2.1875 4.5625 -2.1875 4.5625 -2 2 C-1.34 1.34 -0.68 0.68 0 0 Z " fill="#EDADC1" transform="translate(102,122)"/>
<path d="M0 0 C0.94875 0.04125 1.8975 0.0825 2.875 0.125 C3.68467438 3.03982778 4.09345993 4.58613217 2.9375 7.4375 C2.4115625 8.2728125 2.4115625 8.2728125 1.875 9.125 C0.885 8.795 -0.105 8.465 -1.125 8.125 C-1.455 7.465 -1.785 6.805 -2.125 6.125 C-2.785 6.785 -3.445 7.445 -4.125 8.125 C-4.75 5.25 -4.75 5.25 -5.125 2.125 C-3.125 0.125 -3.125 0.125 0 0 Z " fill="#972749" transform="translate(88.125,99.875)"/>
<path d="M0 0 C4.95 0 9.9 0 15 0 C15 1.98 15 3.96 15 6 C14.34 5.67 13.68 5.34 13 5 C13.33 4.01 13.66 3.02 14 2 C12.68 2 11.36 2 10 2 C10 2.66 10 3.32 10 4 C6.6875 4.6875 6.6875 4.6875 3 5 C1.0625 3.6875 1.0625 3.6875 0 2 C0 1.34 0 0.68 0 0 Z " fill="#9E405E" transform="translate(158,108)"/>
<path d="M0 0 C0 1.32 0 2.64 0 4 C-0.969375 4.12375 -1.93875 4.2475 -2.9375 4.375 C-4.4534375 4.684375 -4.4534375 4.684375 -6 5 C-6.33 5.66 -6.66 6.32 -7 7 C-7.99 6.67 -8.98 6.34 -10 6 C-10 4.68 -10 3.36 -10 2 C-11.98 2 -13.96 2 -16 2 C-16 1.67 -16 1.34 -16 1 C-14.0852312 0.63571223 -12.16807707 0.28394694 -10.25 -0.0625 C-9.18265625 -0.25972656 -8.1153125 -0.45695312 -7.015625 -0.66015625 C-4.25228095 -0.97156937 -2.59053383 -0.8991416 0 0 Z " fill="#942548" transform="translate(152,62)"/>
<path d="M0 0 C1.32 0 2.64 0 4 0 C3.66411682 2.51912388 3.42645046 3.67196119 1.375 5.25 C-2.69430986 6.53504522 -6.47166934 6.62700745 -10.4375 5 C-10.953125 4.67 -11.46875 4.34 -12 4 C-11.01 3.01 -10.02 2.02 -9 1 C-8.67 1.33 -8.34 1.66 -8 2 C-5.04182893 2.25005386 -5.04182893 2.25005386 -2 2 C-1.34 1.34 -0.68 0.68 0 0 Z " fill="#FBE2EB" transform="translate(52,110)"/>
<path d="M0 0 C4.62 0 9.24 0 14 0 C14 0.66 14 1.32 14 2 C12.7934375 2.4640625 12.7934375 2.4640625 11.5625 2.9375 C9.10919595 3.76335345 9.10919595 3.76335345 8 5 C5.0625 5.1875 5.0625 5.1875 2 5 C1.34 4.34 0.68 3.68 0 3 C0 2.01 0 1.02 0 0 Z " fill="#963755" transform="translate(42,108)"/>
<path d="M0 0 C0.99 0.495 0.99 0.495 2 1 C2 1.99 2 2.98 2 4 C2.66 4 3.32 4 4 4 C4.33 2.68 4.66 1.36 5 0 C5.66 0.33 6.32 0.66 7 1 C7 1.99 7 2.98 7 4 C7.66 4 8.32 4 9 4 C9.33 2.68 9.66 1.36 10 0 C11.25541557 3.76624671 10.37061958 5.37188934 9 9 C8.34 9 7.68 9 7 9 C6.34 8.01 5.68 7.02 5 6 C4.67 6.99 4.34 7.98 4 9 C3.34 9 2.68 9 2 9 C0.50178941 5.62902617 0 3.79557881 0 0 Z " fill="#EAABC0" transform="translate(41,122)"/>
<path d="M0 0 C0.66 0 1.32 0 2 0 C2.33 1.98 2.66 3.96 3 6 C5.31 6 7.62 6 10 6 C10 6.33 10 6.66 10 7 C7.36 7 4.72 7 2 7 C2 8.65 2 10.3 2 12 C4.97 12.495 4.97 12.495 8 13 C8 13.99 8 14.98 8 16 C7.67 15.34 7.34 14.68 7 14 C5.5459375 14.0309375 5.5459375 14.0309375 4.0625 14.0625 C1 14 1 14 0 13 C-0.07258946 10.81360547 -0.08373783 8.62499611 -0.0625 6.4375 C-0.05347656 5.23996094 -0.04445312 4.04242188 -0.03515625 2.80859375 C-0.02355469 1.88175781 -0.01195312 0.95492187 0 0 Z " fill="#A4576E" transform="translate(129,73)"/>
<path d="M0 0 C3.96 0 7.92 0 12 0 C12 0.99 12 1.98 12 3 C9.5 4.6875 9.5 4.6875 7 6 C7 5.34 7 4.68 7 4 C5.02 4.33 3.04 4.66 1 5 C0.67 3.35 0.34 1.7 0 0 Z " fill="#8F2949" transform="translate(133,73)"/>
<path d="M0 0 C0.99 0.99 1.98 1.98 3 3 C3.33 2.34 3.66 1.68 4 1 C5.32 1.66 6.64 2.32 8 3 C8.33 2.01 8.66 1.02 9 0 C9.66 0 10.32 0 11 0 C10.34 2.97 9.68 5.94 9 9 C8.34 9 7.68 9 7 9 C6.34 7.68 5.68 6.36 5 5 C4.34 6.32 3.68 7.64 3 9 C0.23776722 6.23776722 0.42143709 3.79293383 0 0 Z " fill="#E8A9BD" transform="translate(55,122)"/>
<path d="M0 0 C2 3.75 2 3.75 2 6 C2.99 6 3.98 6 5 6 C5 8.64 5 11.28 5 14 C4.01 14 3.02 14 2 14 C2 12.68 2 11.36 2 10 C1.34 9.67 0.68 9.34 0 9 C0 8.01 0 7.02 0 6 C-3.96 6 -7.92 6 -12 6 C-12 5.67 -12 5.34 -12 5 C-8.04 5 -4.08 5 0 5 C0 3.35 0 1.7 0 0 Z " fill="#C58499" transform="translate(145,67)"/>
<path d="M0 0 C1.98 0 3.96 0 6 0 C6.268125 0.639375 6.53625 1.27875 6.8125 1.9375 C7.88667752 4.33131686 7.88667752 4.33131686 11 5 C11 5.66 11 6.32 11 7 C5.06 5.515 5.06 5.515 -1 4 C-0.67 2.68 -0.34 1.36 0 0 Z " fill="#943251" transform="translate(64,100)"/>
<path d="M0 0 C0.66 0 1.32 0 2 0 C2.33 0.99 2.66 1.98 3 3 C4.32 2.34 5.64 1.68 7 1 C7.33 1.99 7.66 2.98 8 4 C8.99 2.68 9.98 1.36 11 0 C10.25 6.75 10.25 6.75 8 9 C7.34 7.68 6.68 6.36 6 5 C5.34 6.32 4.68 7.64 4 9 C3.34 9 2.68 9 2 9 C1.34 6.03 0.68 3.06 0 0 Z " fill="#EEAFC2" transform="translate(27,122)"/>
<path d="M0 0 C2.625 0.375 2.625 0.375 5 1 C5 2.32 5 3.64 5 5 C3.35 5 1.7 5 0 5 C0 5.66 0 6.32 0 7 C1.65 7 3.3 7 5 7 C5 7.66 5 8.32 5 9 C2.625 9.125 2.625 9.125 0 9 C-2 7 -2 7 -2.25 4.5 C-2 2 -2 2 0 0 Z " fill="#E29DB3" transform="translate(82,122)"/>
<path d="M0 0 C-0.57344937 2.86724686 -0.8614515 3.8614515 -3 6 C-6.125 6.125 -6.125 6.125 -9 6 C-9.33 4.68 -9.66 3.36 -10 2 C-6.38026598 0.68373308 -3.90432869 0 0 0 Z " fill="#983A58" transform="translate(136,107)"/>
<path d="M0 0 C3.0625 0.1875 3.0625 0.1875 5.0625 2.1875 C5.0625 3.1775 5.0625 4.1675 5.0625 5.1875 C1.7625 5.1875 -1.5375 5.1875 -4.9375 5.1875 C-3.69966216 0.23614865 -3.69966216 0.23614865 0 0 Z " fill="#973E5A" transform="translate(46.9375,99.8125)"/>
<path d="M0 0 C2.875 -0.125 2.875 -0.125 6 0 C8 2 8 2 8 5 C4.7 5 1.4 5 -2 5 C-1.34 3.35 -0.68 1.7 0 0 Z " fill="#983D5A" transform="translate(160,100)"/>
<path d="M0 0 C1.67542976 0.28604898 3.34385343 0.61781233 5 1 C5.33 2.32 5.66 3.64 6 5 C4.02 5 2.04 5 0 5 C0.33 5.66 0.66 6.32 1 7 C2.65 7 4.3 7 6 7 C5.67 7.66 5.34 8.32 5 9 C3.33388095 9.042721 1.66617115 9.04063832 0 9 C-1 8 -1 8 -1.125 4.5 C-1 1 -1 1 0 0 Z " fill="#E4A0B6" transform="translate(140,122)"/>
<path d="M0 0 C1.99954746 -0.04254356 4.00041636 -0.04080783 6 0 C7 1 7 1 7.09765625 2.84765625 C7.06510417 4.8984375 7.03255208 6.94921875 7 9 C6.34 9 5.68 9 5 9 C5 6.69 5 4.38 5 2 C4.01 2 3.02 2 2 2 C2 4.31 2 6.62 2 9 C1.34 9 0.68 9 0 9 C0 6.03 0 3.06 0 0 Z " fill="#E8A5BA" transform="translate(111,122)"/>
<path d="M0 0 C8.03501094 -0.63019694 8.03501094 -0.63019694 12.0625 2 C12.701875 2.66 13.34125 3.32 14 4 C13.67 5.32 13.34 6.64 13 8 C12.01 8 11.02 8 10 8 C9.7525 7.38125 9.505 6.7625 9.25 6.125 C7.74244918 3.5621636 6.79082862 2.95685553 4 2 C1.33290931 1.83249586 1.33290931 1.83249586 -1 2 C-0.67 1.34 -0.34 0.68 0 0 Z " fill="#F7DBE4" transform="translate(42,97)"/>
<path d="M0 0 C9.09504429 -0.62485037 9.09504429 -0.62485037 12.625 1.8125 C14 4 14 4 14 7 C12.68 7 11.36 7 10 7 C9.34 6.01 8.68 5.02 8 4 C6.33499557 3.65846063 4.66821323 3.32550502 3 3 C1.33984375 1.46875 1.33984375 1.46875 0 0 Z " fill="#F6D1DE" transform="translate(62,97)"/>
<path d="M0 0 C1.32 0 2.64 0 4 0 C4.95465783 2.16967689 5.14401212 3.56328793 4.3984375 5.82421875 C3.64129615 7.5684743 2.82390802 9.28627131 2 11 C1.34 11 0.68 11 0 11 C0 7.37 0 3.74 0 0 Z " fill="#B96883" transform="translate(74,122)"/>
<path d="M0 0 C0.91007813 0.00902344 1.82015625 0.01804687 2.7578125 0.02734375 C3.45648438 0.03894531 4.15515625 0.05054687 4.875 0.0625 C1.2752885 3.97197896 -3.05691038 4.89294086 -8.125 6.0625 C-7.75 3.625 -7.75 3.625 -7.125 1.0625 C-4.60024538 -0.19987731 -2.81299534 -0.03606404 0 0 Z " fill="#F9D9E4" transform="translate(131.125,96.9375)"/>
<path d="M0 0 C5 0 10 0 15 0 C15.33 0.66 15.66 1.32 16 2 C14.35 2 12.7 2 11 2 C11 2.99 11 3.98 11 5 C7.30099992 4.11223998 3.65449539 3.05418136 0 2 C0 1.34 0 0.68 0 0 Z " fill="#F4B4C9" transform="translate(152,81)"/>
<path d="M0 0 C1.65 0.33 3.3 0.66 5 1 C5 1.66 5 2.32 5 3 C3.68 3 2.36 3 1 3 C2.32 3.66 3.64 4.32 5 5 C4.67 6.32 4.34 7.64 4 9 C2.35 9 0.7 9 -1 9 C-1.33 8.01 -1.66 7.02 -2 6 C0.475 6.99 0.475 6.99 3 8 C3 7.01 3 6.02 3 5 C1.68 5 0.36 5 -1 5 C-0.67 3.35 -0.34 1.7 0 0 Z " fill="#EEA5BC" transform="translate(92,122)"/>
<path d="M0 0 C3.3 0.33 6.6 0.66 10 1 C9.34 2.98 8.68 4.96 8 7 C7.34 7 6.68 7 6 7 C5.67 8.32 5.34 9.64 5 11 C4.87625 9.39125 4.87625 9.39125 4.75 7.75 C3.94523098 3.7261549 3.12270126 2.51830747 0 0 Z " fill="#983554" transform="translate(51,97)"/>
<path d="M0 0 C1.98 0.99 1.98 0.99 4 2 C4.33 1.34 4.66 0.68 5 0 C5.66 0 6.32 0 7 0 C6.814375 0.928125 6.62875 1.85625 6.4375 2.8125 C5.75876119 6.01343771 5.75876119 6.01343771 7 9 C6.34 9 5.68 9 5 9 C5 8.34 5 7.68 5 7 C3.02 7.99 3.02 7.99 1 9 C1.020625 8.071875 1.04125 7.14375 1.0625 6.1875 C1.15769604 2.97713989 1.15769604 2.97713989 0 0 Z " fill="#EAA7BD" transform="translate(164,122)"/>
<path d="M0 0 C1.21816406 0.03480469 1.21816406 0.03480469 2.4609375 0.0703125 C3.68683594 0.09738281 3.68683594 0.09738281 4.9375 0.125 C5.87722656 0.15980469 5.87722656 0.15980469 6.8359375 0.1953125 C6.8359375 0.5253125 6.8359375 0.8553125 6.8359375 1.1953125 C5.4746875 1.5046875 5.4746875 1.5046875 4.0859375 1.8203125 C0.07507323 3.51721661 -0.99950595 5.50754948 -3.1640625 9.1953125 C-3.4940625 9.1953125 -3.8240625 9.1953125 -4.1640625 9.1953125 C-4.2890625 5.8203125 -4.2890625 5.8203125 -4.1640625 2.1953125 C-2.1640625 0.1953125 -2.1640625 0.1953125 0 0 Z " fill="#FDEFF5" transform="translate(84.1640625,97.8046875)"/>
<path d="M0 0 C3.41794232 4.55725642 3.2800783 5.36292453 2.6875 10.75 C2.56761719 11.92046875 2.44773437 13.0909375 2.32421875 14.296875 C2.21722656 15.18890625 2.11023438 16.0809375 2 17 C1.34 17 0.68 17 0 17 C0 11.39 0 5.78 0 0 Z " fill="#FFF9FD" transform="translate(102,98)"/>
<path d="M0 0 C0.66 0 1.32 0 2 0 C2 1.32 2 2.64 2 4 C-2.29 4 -6.58 4 -11 4 C-11.33 3.34 -11.66 2.68 -12 2 C-11.21753906 1.93941406 -10.43507812 1.87882812 -9.62890625 1.81640625 C-8.61699219 1.73261719 -7.60507813 1.64882812 -6.5625 1.5625 C-5.55316406 1.48128906 -4.54382813 1.40007812 -3.50390625 1.31640625 C-1.06359221 1.26788532 -1.06359221 1.26788532 0 0 Z " fill="#FEF2F8" transform="translate(170,103)"/>
<path d="M0 0 C1.98 0 3.96 0 6 0 C6.66 1.32 7.32 2.64 8 4 C5.03 4 2.06 4 -1 4 C-0.67 2.68 -0.34 1.36 0 0 Z " fill="#942F4F" transform="translate(128,100)"/>
<path d="M0 0 C3.0625 0.1875 3.0625 0.1875 5.0625 2.1875 C5.2578125 5.4453125 5.2578125 5.4453125 5.1875 9.3125 C5.16945313 10.59382813 5.15140625 11.87515625 5.1328125 13.1953125 C5.10960938 14.18273437 5.08640625 15.17015625 5.0625 16.1875 C4.7325 16.1875 4.4025 16.1875 4.0625 16.1875 C4.0625 11.8975 4.0625 7.6075 4.0625 3.1875 C2.0825 3.1875 0.1025 3.1875 -1.9375 3.1875 C-2.5975 2.5275 -3.2575 1.8675 -3.9375 1.1875 C-2.9375 0.1875 -2.9375 0.1875 0 0 Z " fill="#9F4A65" transform="translate(109.9375,99.8125)"/>
<path d="M0 0 C2.125 0.375 2.125 0.375 4 1 C3.50886719 1.36738281 3.01773438 1.73476562 2.51171875 2.11328125 C0.35233767 4.80832276 0.70280942 6.78709215 0.8125 10.1875 C0.83957031 11.27417969 0.86664063 12.36085938 0.89453125 13.48046875 C0.92933594 14.31191406 0.96414062 15.14335938 1 16 C-0.32 15.67 -1.64 15.34 -3 15 C-2.67 14.01 -2.34 13.02 -2 12 C-1.97072083 9.41924999 -2.065481 6.8562976 -2.16015625 4.27734375 C-2 2 -2 2 0 0 Z " fill="#A14461" transform="translate(79,97)"/>
<path d="M0 0 C1.32 0 2.64 0 4 0 C3.67 1.32 3.34 2.64 3 4 C-0.3 4.33 -3.6 4.66 -7 5 C-7 4.34 -7 3.68 -7 3 C-3.535 2.505 -3.535 2.505 0 2 C0 1.34 0 0.68 0 0 Z " fill="#FBE4ED" transform="translate(168,110)"/>
<path d="M0 0 C2.64 0.33 5.28 0.66 8 1 C6.25 3 6.25 3 4 5 C2.68 5 1.36 5 0 5 C0 3.35 0 1.7 0 0 Z " fill="#952C4D" transform="translate(156,124)"/>
<path d="M0 0 C2.33294775 -0.04241723 4.66702567 -0.04092937 7 0 C8 1 8 1 8.0625 4.0625 C8.041875 5.031875 8.02125 6.00125 8 7 C3.8575633 5.61918777 2.67796901 3.40174442 0 0 Z " fill="#FBEDF2" transform="translate(131,98)"/>
<path d="M0 0 C1.98 0.495 1.98 0.495 4 1 C3.67 1.33 3.34 1.66 3 2 C2.80850919 5.63194641 2.80850919 5.63194641 4 9 C2.35 9.33 0.7 9.66 -1 10 C-1.09978121 6.50765756 -0.77842938 3.40562852 0 0 Z " fill="#952648" transform="translate(78,122)"/>
<path d="M0 0 C1.65 0 3.3 0 5 0 C5 2.31 5 4.62 5 7 C4.34 6.34 3.68 5.68 3 5 C0.93125966 4.3574765 0.93125966 4.3574765 -1 4 C-0.67 2.68 -0.34 1.36 0 0 Z " fill="#96455E" transform="translate(148,67)"/>
<path d="M0 0 C2.0625 0.4375 2.0625 0.4375 4 1 C3.01 1.495 3.01 1.495 2 2 C1.67 3.32 1.34 4.64 1 6 C4.96 6 8.92 6 13 6 C13 6.33 13 6.66 13 7 C8.71 7 4.42 7 0 7 C-0.33 5.02 -0.66 3.04 -1 1 C-0.67 0.67 -0.34 0.34 0 0 Z " fill="#953F5A" transform="translate(132,64)"/>
<path d="M0 0 C-2.61941217 1.74627478 -4.03824877 2.38722388 -7 3 C-7 4.98 -7 6.96 -7 9 C-7.66 9 -8.32 9 -9 9 C-9.33 6.69 -9.66 4.38 -10 2 C-6.5980513 -0.09350689 -3.94727588 -0.17942163 0 0 Z " fill="#F1C3D4" transform="translate(139,62)"/>
<path d="M0 0 C2.31 0 4.62 0 7 0 C7 1.32 7 2.64 7 4 C5.35 4 3.7 4 2 4 C1.34 2.68 0.68 1.36 0 0 Z " fill="#902B4B" transform="translate(159,109)"/>
<path d="M0 0 C5 0 10 0 15 0 C15 0.33 15 0.66 15 1 C14.25234375 1.03738281 13.5046875 1.07476562 12.734375 1.11328125 C11.74953125 1.17902344 10.7646875 1.24476562 9.75 1.3125 C8.77546875 1.37050781 7.8009375 1.42851563 6.796875 1.48828125 C3.74658389 2.04636524 2.29288724 2.96369776 0 5 C-0.5625 3.0625 -0.5625 3.0625 -1 1 C-0.67 0.67 -0.34 0.34 0 0 Z " fill="#F7CBDB" transform="translate(135,87)"/>
<path d="M0 0 C3.96 0 7.92 0 12 0 C12 0.33 12 0.66 12 1 C9.03 1 6.06 1 3 1 C3.33 2.32 3.66 3.64 4 5 C3.01 5.33 2.02 5.66 1 6 C0.67 4.02 0.34 2.04 0 0 Z " fill="#8D2041" transform="translate(155,68)"/>
<path d="M0 0 C1.77706209 2.66559313 2.87548273 5.0280615 4 8 C3.01 8 2.02 8 1 8 C0.67 8.66 0.34 9.32 0 10 C-1.125 8.375 -1.125 8.375 -2 6 C-1.125 2.75 -1.125 2.75 0 0 Z " fill="#922C4A" transform="translate(46,125)"/>
<path d="M0 0 C0.66 0.66 1.32 1.32 2 2 C5.09926819 1.67801034 5.09926819 1.67801034 8 1 C7.67 1.99 7.34 2.98 7 4 C6.01 4.33 5.02 4.66 4 5 C3.01 6.485 3.01 6.485 2 8 C0 6 0 6 -0.125 2.875 C-0.08375 1.92625 -0.0425 0.9775 0 0 Z " fill="#992B4B" transform="translate(154,128)"/>
<path d="M0 0 C0.33 1.32 0.66 2.64 1 4 C1.78375 4.12375 2.5675 4.2475 3.375 4.375 C6 5 6 5 8 7 C4.58900832 7 1.36911686 6.50854594 -2 6 C-2 4.35 -2 2.7 -2 1 C-1.34 0.67 -0.68 0.34 0 0 Z " fill="#932E4D" transform="translate(154,75)"/>
<path d="M0 0 C0.66 1.32 1.32 2.64 2 4 C0 6 0 6 -2.1640625 6.1953125 C-3.38222656 6.16050781 -3.38222656 6.16050781 -4.625 6.125 C-5.44226563 6.10695313 -6.25953125 6.08890625 -7.1015625 6.0703125 C-7.72804688 6.04710938 -8.35453125 6.02390625 -9 6 C-6.94927604 4.9681892 -4.90059269 3.95455666 -2.8125 3 C-0.82798477 2.12855431 -0.82798477 2.12855431 0 0 Z " fill="#F4DCE3" transform="translate(72,110)"/>
<path d="M0 0 C0.66 0.33 1.32 0.66 2 1 C2.36923077 6.53846154 2.36923077 6.53846154 0.5 8.875 C-0.2425 9.431875 -0.2425 9.431875 -1 10 C-1.125 3.375 -1.125 3.375 0 0 Z " fill="#9E4661" transform="translate(92,102)"/>
<path d="M0 0 C4.29 0 8.58 0 13 0 C11.515 1.98 11.515 1.98 10 4 C9.34 4 8.68 4 8 4 C8 3.01 8 2.02 8 1 C5.36 1 2.72 1 0 1 C0 0.67 0 0.34 0 0 Z " fill="#9E3655" transform="translate(139,88)"/>
<path d="M0 0 C0.99 1.32 1.98 2.64 3 4 C0 6 0 6 -2.6875 5.625 C-3.450625 5.41875 -4.21375 5.2125 -5 5 C-3.768606 2.53721199 -2.21935077 1.57502313 0 0 Z " fill="#993352" transform="translate(144,78)"/>
<path d="M0 0 C0 1.32 0 2.64 0 4 C-1.65 4 -3.3 4 -5 4 C-4.34 3.34 -3.68 2.68 -3 2 C-5.97 1.505 -5.97 1.505 -9 1 C-9 0.67 -9 0.34 -9 0 C-5.62182575 -0.84454356 -3.32534757 -1.10844919 0 0 Z " fill="#9A425C" transform="translate(152,62)"/>
<path d="M0 0 C0.33 0.66 0.66 1.32 1 2 C1.66 2 2.32 2 3 2 C3 2.99 3 3.98 3 5 C3.66 5 4.32 5 5 5 C5 5.66 5 6.32 5 7 C3.68 7.33 2.36 7.66 1 8 C-0.66411561 4.67176879 -1.08318916 3.61063054 0 0 Z " fill="#AA3E5F" transform="translate(65,124)"/>
<path d="M0 0 C2.31 0 4.62 0 7 0 C7 0.99 7 1.98 7 3 C4.69 3 2.38 3 0 3 C0 2.01 0 1.02 0 0 Z " fill="#8E2444" transform="translate(65,109)"/>
<path d="M0 0 C1.32 0 2.64 0 4 0 C3.67 1.32 3.34 2.64 3 4 C1.68 4 0.36 4 -1 4 C-1 1 -1 1 0 0 Z " fill="#F6D3DF" transform="translate(52,110)"/>
<path d="M0 0 C3.465 1.485 3.465 1.485 7 3 C4 5 4 5 0 5 C-0.33 6.32 -0.66 7.64 -1 9 C-1 7.35 -1 5.7 -1 4 C-0.34 4 0.32 4 1 4 C0.67 2.68 0.34 1.36 0 0 Z " fill="#A85A72" transform="translate(59,104)"/>
<path d="M0 0 C0.66 1.32 1.32 2.64 2 4 C0.68 4.33 -0.64 4.66 -2 5 C-2.66 4.01 -3.32 3.02 -4 2 C-2.68 1.34 -1.36 0.68 0 0 Z M2 1 C3.98 1.99 3.98 1.99 6 3 C4.68 3 3.36 3 2 3 C2 2.34 2 1.68 2 1 Z " fill="#99284A" transform="translate(107,129)"/>
<path d="M0 0 C1.32 0 2.64 0 4 0 C4 1.65 4 3.3 4 5 C2.68 5 1.36 5 0 5 C0 3.35 0 1.7 0 0 Z " fill="#902D4C" transform="translate(102,124)"/>
<path d="M0 0 C0 0.99 0 1.98 0 3 C-1.98 3.66 -3.96 4.32 -6 5 C-6 4.34 -6 3.68 -6 3 C-6.99 3 -7.98 3 -9 3 C-8.67 2.34 -8.34 1.68 -8 1 C-5.2303041 0.27113266 -2.87137415 0 0 0 Z " fill="#FDE8EF" transform="translate(37,97)"/>
<path d="M0 0 C0 0.33 0 0.66 0 1 C-2.97 1.66 -5.94 2.32 -9 3 C-9.33 2.01 -9.66 1.02 -10 0 C-6.7169902 -1.6415049 -3.57454967 -0.51888624 0 0 Z " fill="#FBE6EF" transform="translate(113,99)"/>
<path d="M0 0 C0.66 0.33 1.32 0.66 2 1 C2.625 3.0625 2.625 3.0625 3 5 C1.02 5.99 1.02 5.99 -1 7 C-1.66 6.34 -2.32 5.68 -3 5 C-2.34 5 -1.68 5 -1 5 C-0.67 3.35 -0.34 1.7 0 0 Z " fill="#94324F" transform="translate(32,126)"/>
<path d="M0 0 C3.96 0 7.92 0 12 0 C11.67 0.99 11.34 1.98 11 3 C9.35333797 2.8864371 7.70763918 2.75882619 6.0625 2.625 C5.14597656 2.55539063 4.22945312 2.48578125 3.28515625 2.4140625 C2.15400391 2.20910156 2.15400391 2.20910156 1 2 C0.67 1.34 0.34 0.68 0 0 Z " fill="#983B57" transform="translate(42,115)"/>
<path d="M0 0 C0.33 0 0.66 0 1 0 C1.33 1.65 1.66 3.3 2 5 C2.66 4.34 3.32 3.68 4 3 C3.67 4.65 3.34 6.3 3 8 C2.34 8 1.68 8 1 8 C0.67 8.66 0.34 9.32 0 10 C0 6.7 0 3.4 0 0 Z " fill="#F6D7E3" transform="translate(79,101)"/>
<path d="M0 0 C-0.33 0.99 -0.66 1.98 -1 3 C-1.99 2.34 -2.98 1.68 -4 1 C-6.0492094 0.54860541 -6.0492094 0.54860541 -8.1875 0.375 C-9.445625 0.25125 -10.70375 0.1275 -12 0 C-12 -0.33 -12 -0.66 -12 -1 C-10.56465159 -1.2226746 -9.12654475 -1.42761906 -7.6875 -1.625 C-6.48673828 -1.79902344 -6.48673828 -1.79902344 -5.26171875 -1.9765625 C-3 -2 -3 -2 0 0 Z " fill="#9B3B59" transform="translate(140,97)"/>
<path d="M0 0 C0.78375 0.185625 1.5675 0.37125 2.375 0.5625 C4.97089775 1.25962266 4.97089775 1.25962266 7 0 C7 1.65 7 3.3 7 5 C5.68 4.67 4.36 4.34 3 4 C3 3.34 3 2.68 3 2 C2.01 2 1.02 2 0 2 C0 1.34 0 0.68 0 0 Z " fill="#E8B4C4" transform="translate(147,71)"/>
<path d="M0 0 C0 0.33 0 0.66 0 1 C-1.45635371 1.22174933 -2.91522956 1.42698698 -4.375 1.625 C-5.18710938 1.74101563 -5.99921875 1.85703125 -6.8359375 1.9765625 C-7.55007812 1.98429687 -8.26421875 1.99203125 -9 2 C-9.66 1.34 -10.32 0.68 -11 0 C-7.18243176 -1.37432457 -3.92744671 -0.67975039 0 0 Z " fill="#E7A8BD" transform="translate(148,61)"/>
<path d="M0 0 C0.33 0.66 0.66 1.32 1 2 C1.99 2.33 2.98 2.66 4 3 C4 3.66 4 4.32 4 5 C0.7 4.34 -2.6 3.68 -6 3 C-6 2.67 -6 2.34 -6 2 C-4.02 2 -2.04 2 0 2 C0 1.34 0 0.68 0 0 Z " fill="#A75971" transform="translate(71,102)"/>
<path d="M0 0 C0.99 0 1.98 0 3 0 C2.67 1.65 2.34 3.3 2 5 C1.01 5 0.02 5 -1 5 C-0.67 3.35 -0.34 1.7 0 0 Z " fill="#FAE6EE" transform="translate(124,98)"/>
<path d="M0 0 C3.3 0.33 6.6 0.66 10 1 C7.83735215 3.16264785 7.01811422 3.82246387 4 4 C1.75 2.0625 1.75 2.0625 0 0 Z " fill="#9F3A5A" transform="translate(51,97)"/>
<path d="M0 0 C0.99 0 1.98 0 3 0 C3.33 1.65 3.66 3.3 4 5 C2.35 5 0.7 5 -1 5 C-0.67 3.35 -0.34 1.7 0 0 Z " fill="#8A2646" transform="translate(152,83)"/>
<path d="M0 0 C1.66666667 0 3.33333333 0 5 0 C5 0.66 5 1.32 5 2 C5.99 1.67 6.98 1.34 8 1 C8 1.66 8 2.32 8 3 C5.36 3.33 2.72 3.66 0 4 C0 2.68 0 1.36 0 0 Z " fill="#983350" transform="translate(164,129)"/>
<path d="M0 0 C0.33 0 0.66 0 1 0 C1 2.97 1 5.94 1 9 C0.01 9.33 -0.98 9.66 -2 10 C-1.46274105 6.62294375 -0.88935377 3.303314 0 0 Z " fill="#8C2343" transform="translate(110,122)"/>
<path d="M0 0 C0.99 0 1.98 0 3 0 C2.625 2.9375 2.625 2.9375 2 6 C1.01 6.495 1.01 6.495 0 7 C0 4.69 0 2.38 0 0 Z " fill="#892B48" transform="translate(113,124)"/>
<path d="M0 0 C2.475 0.495 2.475 0.495 5 1 C5.33 2.65 5.66 4.3 6 6 C3.37812506 4.95125002 2.20628639 4.35068687 0.75 1.875 C0.5025 1.25625 0.255 0.6375 0 0 Z " fill="#912044" transform="translate(76,112)"/>
<path d="M0 0 C1.32 0.66 2.64 1.32 4 2 C2.875 3.5 2.875 3.5 1 5 C-2.1875 5.1875 -2.1875 5.1875 -5 5 C-4.67 4.34 -4.34 3.68 -4 3 C-2.68 3 -1.36 3 0 3 C0 2.01 0 1.02 0 0 Z " fill="#A34F68" transform="translate(37,97)"/>
</svg>
